<svg width="30" height="30" fill="none" xmlns="http://www.w3.org/2000/svg"><g clip-path="url(#clip0_3_266)"><path d="M27.593 19.692c-1.837 0-3.64-.288-5.35-.852-.837-.286-1.866-.024-2.377.5l-3.373 2.547C12.58 19.8 10.17 17.39 8.11 13.507l2.472-3.285a2.425 2.425 0 00.596-2.457 17.062 17.062 0 01-.855-5.358A2.41 2.41 0 007.917 0h-5.51A2.41 2.41 0 000 2.407C0 17.622 12.378 30 27.593 30A2.41 2.41 0 0030 27.593v-5.494a2.41 2.41 0 00-2.407-2.407z" fill="#000"/></g><defs><clipPath id="clip0_3_266"><path fill="#fff" d="M0 0h30v30H0z"/></clipPath></defs></svg>