<svg width="30" height="30" fill="none" xmlns="http://www.w3.org/2000/svg"><g clip-path="url(#clip0_3_351)" fill="#000"><path d="M26.484 2.344h-1.406V0h-2.344v2.344H7.266V0H4.922v2.344H3.516A3.52 3.52 0 000 5.859v20.625A3.52 3.52 0 003.516 30h22.968A3.52 3.52 0 0030 26.484V5.86a3.52 3.52 0 00-3.516-3.515zm1.172 24.14c0 .646-.525 1.172-1.172 1.172H3.516a1.173 1.173 0 01-1.172-1.172V11.016h25.312v15.468zm0-17.812H2.344V5.859c0-.646.525-1.171 1.172-1.171h1.406V7.03h2.344V4.688h15.468V7.03h2.344V4.688h1.406c.646 0 1.172.525 1.172 1.171v2.813z"/><path d="M6.797 13.477H4.453v2.343h2.344v-2.343zm4.687 0H9.141v2.343h2.343v-2.343zm4.688 0h-2.344v2.343h2.344v-2.343zm4.688 0h-2.344v2.343h2.343v-2.343zm4.687 0h-2.344v2.343h2.344v-2.343zm-18.75 4.687H4.453v2.344h2.344v-2.344zm4.687 0H9.141v2.344h2.343v-2.344zm4.688 0h-2.344v2.344h2.344v-2.344zm4.688 0h-2.344v2.344h2.343v-2.344zM6.797 22.852H4.453v2.343h2.344v-2.343zm4.687 0H9.141v2.343h2.343v-2.343zm4.688 0h-2.344v2.343h2.344v-2.343zm4.688 0h-2.344v2.343h2.343v-2.343zm4.687-4.688h-2.344v2.344h2.344v-2.344z"/></g><defs><clipPath id="clip0_3_351"><path fill="#fff" d="M0 0h30v30H0z"/></clipPath></defs></svg>